<svg xmlns="http://www.w3.org/2000/svg" xmlns:xlink="http://www.w3.org/1999/xlink" width="1080" height="1920" viewBox="0 0 1080 1920">
  <defs>
    <clipPath id="clip-Splash">
      <rect width="1080" height="1920"/>
    </clipPath>
  </defs>
  <g id="Splash" clip-path="url(#clip-Splash)">
    <rect width="1080" height="1920" fill="#ba06ad"/>
    <g id="Union_4" data-name="Union 4" fill="#e54ddb">
      <path d="M 540 1919.499877929688 C 503.4202270507813 1919.499877929688 466.8626098632813 1917.465087890625 431.3431091308594 1913.452514648438 C 396.7266540527344 1909.54150390625 362.6749877929688 1903.7060546875 330.13427734375 1896.108032226563 C 298.1861877441406 1888.64794921875 267.3692932128906 1879.414672851563 238.5397644042969 1868.664184570313 C 209.9878540039063 1858.016967773438 183.134521484375 1845.789428710938 158.7261962890625 1832.32080078125 C 134.3235778808594 1818.855590820313 112.1628570556641 1804.038696289063 92.85976409912109 1788.281982421875 C 73.37928771972656 1772.38037109375 56.63857269287109 1755.380859375 43.10309600830078 1737.756103515625 C 36.26618957519531 1728.853637695313 30.15476226806641 1719.662963867188 24.93857192993164 1710.43896484375 C 19.66452407836914 1701.113403320313 15.17880916595459 1691.529663085938 11.60595226287842 1681.953735351563 C 7.987143039703369 1672.254638671875 5.216666698455811 1662.327514648438 3.371428489685059 1652.4482421875 C 1.499285697937012 1642.425170898438 0.5335714221000671 1632.203735351563 0.5009523630142212 1622.067504882813 L 0.5 1621.78271484375 L 0.5 1621.517456054688 L 0.5 0.5001160502433777 L 1079.5 0.5001160502433777 L 1079.5 1621.517456054688 L 1079.5 1621.88623046875 L 1079.4990234375 1622.067504882813 C 1079.466430664063 1632.203735351563 1078.500732421875 1642.425170898438 1076.628540039063 1652.4482421875 C 1074.783325195313 1662.327514648438 1072.012817382813 1672.254638671875 1068.39404296875 1681.953735351563 C 1064.821166992188 1691.529663085938 1060.33544921875 1701.113403320313 1055.061401367188 1710.43896484375 C 1049.84521484375 1719.662963867188 1043.733764648438 1728.853637695313 1036.896850585938 1737.756103515625 C 1023.361450195313 1755.380859375 1006.620727539063 1772.38037109375 987.1402587890625 1788.281982421875 C 967.837158203125 1804.038696289063 945.6764526367188 1818.855590820313 921.2738037109375 1832.32080078125 C 896.865478515625 1845.789428710938 870.0121459960938 1858.016967773438 841.4602661132813 1868.664184570313 C 812.6307373046875 1879.414672851563 781.8137817382813 1888.64794921875 749.86572265625 1896.108032226563 C 717.3250122070313 1903.7060546875 683.2733154296875 1909.54150390625 648.6569213867188 1913.452514648438 C 613.1373901367188 1917.465087890625 576.5797729492188 1919.499877929688 540 1919.499877929688 Z" stroke="none"/>
      <path d="M 540 1918.999877929688 C 576.5612182617188 1918.999877929688 613.0997314453125 1916.96630859375 648.6007080078125 1912.95556640625 C 683.1978759765625 1909.046997070313 717.230224609375 1903.21484375 749.7521362304688 1895.62109375 C 781.6795043945313 1888.166015625 812.4759521484375 1878.938720703125 841.2857055664063 1868.195556640625 C 869.8145141601563 1857.557250976563 896.645263671875 1845.33984375 921.0324096679688 1831.883178710938 C 945.4088134765625 1818.432250976563 967.5443115234375 1803.632446289063 986.8240356445313 1787.894653320313 C 1006.274780273438 1772.017211914063 1022.988342285156 1755.045776367188 1036.500244140625 1737.451538085938 C 1043.322875976563 1728.567749023438 1049.42138671875 1719.396484375 1054.626220703125 1710.192993164063 C 1059.887329101563 1700.89013671875 1064.361938476563 1691.330078125 1067.925537109375 1681.778930664063 C 1071.534301757813 1672.106811523438 1074.297119140625 1662.207763671875 1076.137084960938 1652.356323242188 C 1078.003540039063 1642.362915039063 1078.966430664063 1632.171752929688 1078.9990234375 1622.065795898438 L 1079 1621.844360351563 L 1079 1621.517456054688 L 1079 1.000115990638733 L 1 1.000115990638733 L 1 1621.517456054688 L 1 1621.781127929688 L 1.000952363014221 1622.065795898438 C 1.033571481704712 1632.171752929688 1.996428608894348 1642.362915039063 3.862857103347778 1652.356323242188 C 5.70285701751709 1662.207763671875 8.465714454650879 1672.106811523438 12.07452392578125 1681.778930664063 C 15.63809490203857 1691.330078125 20.11261940002441 1700.89013671875 25.37380981445313 1710.192993164063 C 30.57857131958008 1719.396484375 36.67714309692383 1728.567749023438 43.49976348876953 1737.451538085938 C 57.01166534423828 1755.045776367188 73.72523498535156 1772.017211914063 93.17594909667969 1787.894653320313 C 112.4557113647461 1803.632446289063 134.5911865234375 1818.432250976563 158.9676208496094 1831.883178710938 C 183.3547668457031 1845.33984375 210.1854705810547 1857.557250976563 238.7142791748047 1868.195556640625 C 267.5240478515625 1878.938720703125 298.3204650878906 1888.166015625 330.2478637695313 1895.62109375 C 362.769775390625 1903.21484375 396.8021545410156 1909.046997070313 431.3992919921875 1912.95556640625 C 466.9002380371094 1916.96630859375 503.4388122558594 1918.999877929688 540 1918.999877929688 M 540 1919.999877929688 C 242.0938110351563 1919.999877929688 0.5314285755157471 1786.6669921875 0.0009523809421807528 1622.069213867188 L 0 1622.069213867188 L 0 1621.517456054688 L 0 0.0001160249230451882 L 1080 0.0001160249230451882 L 1080 1621.517456054688 L 1080 1622.069213867188 L 1079.9990234375 1622.069213867188 C 1079.468627929688 1786.6669921875 837.9061889648438 1919.999877929688 540 1919.999877929688 Z" stroke="none" fill="#707070"/>
    </g>
    <g id="Union_2" data-name="Union 2" fill="#fff">
      <path d="M 540 1931.499877929688 C 521.606201171875 1931.499877929688 503.0564270019531 1930.67578125 484.86572265625 1929.050415039063 C 466.9385681152344 1927.448486328125 448.9245300292969 1925.029663085938 431.3240356445313 1921.86083984375 C 413.951416015625 1918.733154296875 396.5640563964844 1914.799682617188 379.6452331542969 1910.169677734375 C 362.9157104492188 1905.591796875 346.2464294433594 1900.223876953125 330.1002502441406 1894.215576171875 C 314.1030883789063 1888.2626953125 298.2428588867188 1881.540771484375 282.9595336914063 1874.236572265625 C 267.7850036621094 1866.984375 252.8247680664063 1858.988403320313 238.4940490722656 1850.471313476563 C 224.2328643798828 1841.995361328125 210.2635650634766 1832.806030273438 196.9742889404297 1823.158447265625 C 183.7180938720703 1813.53466796875 170.8309478759766 1803.232055664063 158.6714324951172 1792.536499023438 C 146.5121459960938 1781.84130859375 134.79833984375 1770.505615234375 123.855712890625 1758.844116210938 C 112.8864288330078 1747.154418945313 102.4369049072266 1734.865844726563 92.79762268066406 1722.31982421875 C 83.11190795898438 1709.713256835938 74.01786041259766 1696.55224609375 65.76786041259766 1683.202026367188 C 57.45928573608398 1669.757080078125 49.81119155883789 1655.8037109375 43.03643035888672 1641.729370117188 C 36.19881057739258 1627.524658203125 30.08809471130371 1612.859130859375 24.87380981445313 1598.14013671875 C 19.6009521484375 1583.255126953125 15.11809539794922 1567.95751953125 11.55000019073486 1552.671997070313 C 7.935237884521484 1537.1865234375 5.171428680419922 1521.336791992188 3.335237979888916 1505.562744140625 C 1.472142815589905 1489.557250976563 0.5180952548980713 1473.235107421875 0.5 1457.049682617188 L 0.5 1456.546508789063 L 0.5 0.5001160502433777 L 1079.5 0.5001160502433777 L 1079.5 1457.050170898438 C 1079.48193359375 1473.235107421875 1078.52783203125 1489.557250976563 1076.664794921875 1505.562744140625 C 1074.82861328125 1521.336791992188 1072.064819335938 1537.1865234375 1068.449951171875 1552.671997070313 C 1064.881958007813 1567.95751953125 1060.399047851563 1583.255126953125 1055.126220703125 1598.14013671875 C 1049.911865234375 1612.859130859375 1043.801147460938 1627.524658203125 1036.963623046875 1641.729370117188 C 1030.188842773438 1655.8037109375 1022.540710449219 1669.757080078125 1014.232116699219 1683.202026367188 C 1005.982116699219 1696.55224609375 996.8881225585938 1709.713256835938 987.202392578125 1722.31982421875 C 977.5631103515625 1734.865844726563 967.1135864257813 1747.154418945313 956.144287109375 1758.844116210938 C 945.20166015625 1770.505615234375 933.4878540039063 1781.84130859375 921.3285522460938 1792.536499023438 C 909.1690673828125 1803.232055664063 896.2819213867188 1813.53466796875 883.0256958007813 1823.158447265625 C 869.7364501953125 1832.806030273438 855.7671508789063 1841.995361328125 841.5059814453125 1850.471313476563 C 827.1752319335938 1858.988403320313 812.2150268554688 1866.984375 797.0404663085938 1874.236572265625 C 781.7571411132813 1881.540771484375 765.8969116210938 1888.2626953125 749.8997802734375 1894.215576171875 C 733.7536010742188 1900.223876953125 717.0842895507813 1905.591796875 700.354736328125 1910.169677734375 C 683.4359741210938 1914.799682617188 666.048583984375 1918.733154296875 648.6759643554688 1921.86083984375 C 631.0755004882813 1925.029663085938 613.0614013671875 1927.448486328125 595.13427734375 1929.050415039063 C 576.9435424804688 1930.67578125 558.393798828125 1931.499877929688 540 1931.499877929688 Z" stroke="none"/>
      <path d="M 540 1930.999877929688 C 558.3790283203125 1930.999877929688 576.913818359375 1930.17626953125 595.0897827148438 1928.55224609375 C 613.0023803710938 1926.951782226563 631.0014038085938 1924.534912109375 648.58740234375 1921.36865234375 C 665.9454956054688 1918.24365234375 683.318115234375 1914.3134765625 700.2228393554688 1909.6875 C 716.9378662109375 1905.113403320313 733.5930786132813 1899.750122070313 749.7254638671875 1893.746826171875 C 765.7085571289063 1887.799194335938 781.5549926757813 1881.083251953125 796.8250122070313 1873.785400390625 C 811.9857177734375 1866.539672851563 826.932861328125 1858.551025390625 841.25048828125 1850.04150390625 C 855.4985961914063 1841.573486328125 869.4550170898438 1832.392456054688 882.73193359375 1822.75390625 C 895.9757080078125 1813.13916015625 908.8504638671875 1802.846313476563 920.9983520507813 1792.161010742188 C 933.1456909179688 1781.4765625 944.8478393554688 1770.151733398438 955.77978515625 1758.502075195313 C 966.7378540039063 1746.82421875 977.1764526367188 1734.548217773438 986.8059692382813 1722.01513671875 C 996.4814453125 1709.421997070313 1005.565734863281 1696.275146484375 1013.806884765625 1682.939208984375 C 1022.106201171875 1669.508911132813 1029.745727539063 1655.571044921875 1036.513061523438 1641.5126953125 C 1043.342895507813 1627.323974609375 1049.446655273438 1612.675415039063 1054.65478515625 1597.973266601563 C 1059.921630859375 1583.105590820313 1064.399291992188 1567.825805664063 1067.963134765625 1552.558227539063 C 1071.573608398438 1537.09130859375 1074.334106445313 1521.260375976563 1076.168090820313 1505.5048828125 C 1078.029052734375 1489.518432617188 1078.98193359375 1473.21533203125 1079 1457.050170898438 L 1079 1.000115990638733 L 1 1.000115990638733 L 1 1456.546508789063 L 1 1457.048950195313 C 1.018095254898071 1473.21533203125 1.970952391624451 1489.518432617188 3.831904649734497 1505.5048828125 C 5.665952205657959 1521.260375976563 8.42642879486084 1537.09130859375 12.03690433502197 1552.558227539063 C 15.60071468353271 1567.825805664063 20.07833290100098 1583.105590820313 25.34523773193359 1597.973266601563 C 30.5533332824707 1612.675415039063 36.65714263916016 1627.323974609375 43.48690414428711 1641.5126953125 C 50.2542839050293 1655.571044921875 57.8938102722168 1669.508911132813 66.19309234619141 1682.939208984375 C 74.43428802490234 1696.275146484375 83.51856994628906 1709.421997070313 93.19404602050781 1722.01513671875 C 102.8235702514648 1734.548217773438 113.2621459960938 1746.82421875 124.2202377319336 1758.502075195313 C 135.1521453857422 1770.151733398438 146.8542785644531 1781.4765625 159.0016632080078 1792.161010742188 C 171.1495208740234 1802.846313476563 184.0242919921875 1813.13916015625 197.2680969238281 1822.75390625 C 210.5449981689453 1832.392456054688 224.5014343261719 1841.573486328125 238.7495269775391 1850.04150390625 C 253.067138671875 1858.551025390625 268.0142822265625 1866.539672851563 283.1749877929688 1873.785400390625 C 298.4450073242188 1881.083251953125 314.2914428710938 1887.799194335938 330.2745361328125 1893.746826171875 C 346.4068908691406 1899.750122070313 363.0621337890625 1905.113403320313 379.7771301269531 1909.6875 C 396.6819152832031 1914.3134765625 414.0545349121094 1918.24365234375 431.4126281738281 1921.36865234375 C 448.9985656738281 1924.534912109375 466.9976196289063 1926.951782226563 484.9102478027344 1928.55224609375 C 503.086181640625 1930.17626953125 521.6209716796875 1930.999877929688 540 1930.999877929688 M 540 1931.999877929688 C 241.9478607177734 1931.999877929688 0.2952381074428558 1719.415405273438 0 1457.050170898438 L 0 1456.546508789063 L 0 0.0001160249230451882 L 1080 0.0001160249230451882 L 1080 1457.050170898438 C 1079.704711914063 1719.415405273438 838.0521240234375 1931.999877929688 540 1931.999877929688 Z" stroke="none" fill="#707070"/>
    </g>
    <g id="Ellipse_7" data-name="Ellipse 7" transform="translate(403 703)" fill="#ba06ad" stroke="#707070" stroke-width="1">
      <ellipse cx="137.5" cy="128.5" rx="137.5" ry="128.5" stroke="none"/>
      <ellipse cx="137.5" cy="128.5" rx="137" ry="128" fill="none"/>
    </g>
    <g id="Ellipse_8" data-name="Ellipse 8" transform="translate(440 793)" fill="#e54ddb" stroke="#707070" stroke-width="1">
      <ellipse cx="100" cy="73.5" rx="100" ry="73.5" stroke="none"/>
      <ellipse cx="100" cy="73.5" rx="99.5" ry="73" fill="none"/>
    </g>
    <g id="Ellipse_9" data-name="Ellipse 9" transform="translate(465 705)" fill="#fff" stroke="#707070" stroke-width="1">
      <ellipse cx="75" cy="44" rx="75" ry="44" stroke="none"/>
      <ellipse cx="75" cy="44" rx="74.5" ry="43.5" fill="none"/>
    </g>
    <text id="_8" data-name="8" transform="translate(487 793)" font-size="100" font-family="SegoeUI, Segoe UI"><tspan x="26.547" y="108">8</tspan></text>
    <text id="Drinks_In" data-name="Drinks In" transform="translate(35 1535)" font-size="70" font-family="SegoeUI, Segoe UI"><tspan x="354.05" y="76">Drinks In</tspan></text>
  </g>
</svg>
